HIERARCHY
ROOT Hips
{
 OFFSET 0.000000 0.000000 0.000000
 CHANNELS 6 Xposition Yposition Zposition Yrotation Xrotation Zrotation
 JOINT Chest
 {
  OFFSET 0.000000 14.374500 -0.011500
  CHANNELS 3 Yrotation Xrotation Zrotation
  JOINT Chest2
  {
   OFFSET 0.000000 9.203400 0.023400
   CHANNELS 3 Yrotation Xrotation Zrotation
   JOINT Chest3
   {
    OFFSET 0.000000 9.162700 0.000000
    CHANNELS 3 Yrotation Xrotation Zrotation
    JOINT Chest4
    {
     OFFSET 0.000000 9.153300 0.000000
     CHANNELS 3 Yrotation Xrotation Zrotation
     JOINT Neck
     {
      OFFSET 0.000000 13.353600 0.000000
      CHANNELS 3 Yrotation Xrotation Zrotation
      JOINT Head
      {
       OFFSET 0.000000 8.573800 0.049400
       CHANNELS 3 Yrotation Xrotation Zrotation
       End Site
       {
        OFFSET 0.000000 16.219200 0.026100
       }
      }
     }
     JOINT RightCollar
     {
      OFFSET -2.497100 8.876100 0.000000
      CHANNELS 3 Yrotation Xrotation Zrotation
      JOINT RightShoulder
      {
       OFFSET -12.289200 0.000000 0.000000
       CHANNELS 3 Yrotation Xrotation Zrotation
       JOINT RightElbow
       {
        OFFSET 0.000000 -28.194900 0.000000
        CHANNELS 3 Yrotation Xrotation Zrotation
        JOINT RightWrist
        {
         OFFSET 0.000000 -23.009700 0.007900
         CHANNELS 3 Yrotation Xrotation Zrotation
         End Site
         {
          OFFSET 0.000000 -17.151500 0.000000
         }
        }
       }
      }
     }
     JOINT LeftCollar
     {
      OFFSET 2.497100 8.876100 0.000000
      CHANNELS 3 Yrotation Xrotation Zrotation
      JOINT LeftShoulder
      {
       OFFSET 12.289200 0.000000 0.000000
       CHANNELS 3 Yrotation Xrotation Zrotation
       JOINT LeftElbow
       {
        OFFSET 0.000000 -28.194900 0.000000
        CHANNELS 3 Yrotation Xrotation Zrotation
        JOINT LeftWrist
        {
         OFFSET 0.000000 -23.009700 0.007900
         CHANNELS 3 Yrotation Xrotation Zrotation
         End Site
         {
          OFFSET 0.000000 -17.151500 0.000000
         }
        }
       }
      }
     }
    }
   }
  }
 }
 JOINT RightHip
 {
  OFFSET -11.777600 0.056700 0.005700
  CHANNELS 3 Yrotation Xrotation Zrotation
  JOINT RightKnee
  {
   OFFSET 0.000000 -39.966000 -0.004200
   CHANNELS 3 Yrotation Xrotation Zrotation
   JOINT RightAnkle
   {
    OFFSET 0.000000 -41.981900 0.027400
    CHANNELS 3 Yrotation Xrotation Zrotation
    JOINT RightToe
    {
     OFFSET 0.000000 -9.910600 16.950100
     CHANNELS 3 Yrotation Xrotation Zrotation
     End Site
     {
      OFFSET 0.000000 -1.461000 6.191600
     }
    }
   }
  }
 }
 JOINT LeftHip
 {
  OFFSET 11.777600 0.056700 0.005700
  CHANNELS 3 Yrotation Xrotation Zrotation
  JOINT LeftKnee
  {
   OFFSET 0.000000 -39.966000 -0.004200
   CHANNELS 3 Yrotation Xrotation Zrotation
   JOINT LeftAnkle
   {
    OFFSET 0.000000 -41.981900 0.027400
    CHANNELS 3 Yrotation Xrotation Zrotation
    JOINT LeftToe
    {
     OFFSET 0.000000 -9.910600 16.950100
     CHANNELS 3 Yrotation Xrotation Zrotation
     End Site
     {
      OFFSET 0.000000 -1.461000 6.191600
     }
    }
   }
  }
 }
}
MOTION
Frames: 12
Frame Time: 0.008333
0.668753 130.450584 54.143953 176.155904 -53.495458 -2.475520 3.733356 28.027263 4.843016 0.483776 5.136693 0.722231 0.792274 8.074825 1.158690 2.759982 22.654406 3.675340 2.511529 25.111844 1.028387 2.622154 1.409418 0.543684 -0.730014 -3.875676 -2.306059 -1.513923 -7.382938 -9.482134 162.640667 -59.941510 -146.766742 23.891849 -1.681680 -30.831770 -8.139511 -6.229898 2.537882 8.991914 -4.565446 6.462108 171.366020 -63.193813 165.480974 -16.135701 -24.525391 32.712413 6.808502 -24.477747 1.024235 -75.324255 83.847335 -78.695379 0.580984 -24.882497 9.678539 -0.002059 -0.003907 -0.001204 -1.029338 -20.550080 -3.319124 107.141587 78.391907 115.058887 7.314660 -12.139157 -6.153721 0.016380 0.001559 0.009577
0.668836 130.449995 54.161895 176.121787 -53.591051 -2.435167 3.725868 28.062372 4.859897 0.492429 5.174700 0.704624 0.787776 8.075342 1.175947 2.754270 22.659194 3.724372 2.590898 25.018424 0.983423 2.628233 1.396030 0.481034 -0.759581 -3.896843 -2.314899 -1.604325 -7.204423 -9.390292 163.197270 -60.523788 -146.925127 23.719091 -1.669103 -30.891848 -8.143113 -6.057607 2.489286 9.207539 -4.388259 6.237293 171.077134 -63.786243 165.880283 -15.899889 -24.299523 32.719230 6.816361 -24.390060 1.039728 -75.199454 83.834140 -78.590673 0.577857 -24.876000 9.680858 -0.001609 -0.003347 -0.000941 -1.046289 -20.468823 -3.345599 106.996011 78.386554 114.897778 7.278878 -12.039588 -6.150561 0.007924 0.008027 0.004634
0.674111 130.448857 54.180672 176.078924 -53.682812 -2.409585 3.747296 28.121484 4.889493 0.472733 5.140126 0.741665 0.804230 8.134701 1.130144 2.745630 22.645201 3.792677 2.650806 24.948964 0.929847 2.669013 1.350951 0.405697 -0.792779 -3.884179 -2.323516 -1.765422 -7.066035 -9.296851 164.347067 -61.239313 -147.514227 23.481561 -1.629803 -30.939979 -8.096666 -5.860680 2.435845 9.536887 -4.229441 5.951764 169.737220 -64.430847 167.166273 -15.615531 -24.056242 32.839620 6.824990 -24.307196 1.075274 -74.874036 83.818925 -78.273843 0.577192 -24.851469 9.673342 -0.002693 -0.002617 -0.001574 -1.038726 -20.383009 -3.343864 106.868610 78.394797 114.772899 7.271039 -11.976393 -6.156709 0.009167 0.011460 0.005361
0.677631 130.450329 54.197087 176.040367 -53.787265 -2.380703 3.728468 28.143340 4.924942 0.468991 5.154563 0.748428 0.788831 8.136335 1.169896 2.726345 22.695259 3.761000 2.699495 24.893416 0.868545 2.735451 1.284171 0.327728 -0.825736 -3.833070 -2.341777 -1.951028 -6.966939 -9.218723 165.783027 -62.014314 -148.332828 23.222806 -1.586196 -30.994561 -8.003551 -5.675397 2.379151 9.934508 -4.058738 5.631781 167.495776 -65.075083 169.227846 -15.293034 -23.807571 33.078549 6.835283 -24.209321 1.104400 -74.773536 83.808937 -78.182093 0.575491 -24.853773 9.666044 -0.002773 -0.003096 -0.001621 -1.032163 -20.283707 -3.349121 106.811974 78.392172 114.704386 7.269943 -11.934659 -6.157449 0.010856 0.019742 0.006349
0.676426 130.449328 54.214417 176.021026 -53.879119 -2.349472 3.684164 28.151790 4.930887 0.473008 5.182744 0.742434 0.775938 8.142195 1.189516 2.711827 22.724337 3.755646 2.756849 24.832221 0.819696 2.808483 1.210804 0.261244 -0.860041 -3.749424 -2.360118 -2.122334 -6.893598 -9.161960 167.197813 -62.780423 -149.164779 22.987305 -1.555509 -31.062395 -7.871199 -5.477143 2.339310 10.368848 -3.914612 5.290564 164.553638 -65.672282 171.885007 -14.947409 -23.589738 33.427814 6.847507 -24.119521 1.105531 -74.669159 83.802783 -78.082071 0.573060 -24.861154 9.658444 -0.002425 -0.001132 -0.001418 -1.093529 -20.224433 -3.407326 106.722737 78.357422 114.567335 7.303243 -11.834997 -6.167649 -0.002668 0.009424 -0.001560
0.677998 130.448576 54.231393 175.993819 -53.971046 -2.323230 3.665207 28.174799 4.936106 0.470691 5.192959 0.744790 0.772339 8.157121 1.192995 2.711586 22.757398 3.746908 2.818911 24.745448 0.812379 2.883298 1.127942 0.217848 -0.909033 -3.659802 -2.351930 -2.257291 -6.827795 -9.124938 168.303187 -63.482911 -149.788464 22.817554 -1.555977 -31.140330 -7.724404 -5.288052 2.339136 10.827620 -3.810709 4.954462 161.186831 -66.189056 174.864631 -14.608622 -23.443497 33.870458 6.859162 -24.030890 1.119528 -74.500669 83.785050 -77.917585 0.581346 -24.858883 9.651850 -0.004495 -0.000112 -0.002628 -1.110938 -20.151676 -3.437626 106.591446 78.349796 114.425820 7.313722 -11.753317 -6.177717 -0.001948 0.002732 -0.001139
0.681872 130.446422 54.248954 175.967504 -54.053811 -2.307078 3.671438 28.222215 4.947208 0.464653 5.183121 0.748207 0.775698 8.179340 1.191416 2.705152 22.764589 3.754075 2.880505 24.652765 0.808992 2.954454 1.034036 0.204411 -0.953344 -3.557347 -2.351254 -2.348355 -6.750613 -9.105294 168.867764 -64.085862 -149.999889 22.743376 -1.592208 -31.227177 -7.559725 -5.108462 2.333105 11.305611 -3.749117 4.653539 157.800050 -66.609403 177.776097 -14.304485 -23.391935 34.368524 6.860418 -23.958029 1.142998 -74.257109 83.750839 -77.677128 0.609365 -24.828841 9.640653 -0.005094 0.000176 -0.002979 -1.128622 -20.087181 -3.461642 106.462667 78.336947 114.290724 7.327896 -11.688104 -6.191307 -0.004326 -0.006518 -0.002529
0.681781 130.444562 54.264893 175.953040 -54.135060 -2.284102 3.657706 28.221224 4.933059 0.471575 5.252083 0.748173 0.770318 8.171660 1.195091 2.692281 22.758065 3.762160 2.944379 24.569268 0.803739 3.017021 0.930184 0.222546 -0.981763 -3.436693 -2.362041 -2.397253 -6.648299 -9.100819 168.771914 -64.576921 -149.677072 22.759203 -1.647738 -31.316659 -7.384526 -4.943604 2.311853 11.781808 -3.711924 4.415393 154.878355 -66.945000 -179.816356 -14.065466 -23.447774 34.861047 6.863805 -23.885329 1.155708 -74.169545 83.727966 -77.597619 0.613455 -24.814600 9.636718 -0.000472 -0.000377 -0.000276 -1.140913 -20.024711 -3.511514 106.217934 78.349679 114.068730 7.335780 -11.566284 -6.212940 0.002968 -0.017750 0.001735
0.684049 130.438124 54.283308 175.929118 -54.189259 -2.263293 3.671168 28.196481 4.927149 0.463703 5.271227 0.753497 0.782833 8.155474 1.180196 2.687677 22.800418 3.771368 3.008037 24.486342 0.833631 3.067256 0.819520 0.267908 -1.010936 -3.309931 -2.353500 -2.411727 -6.517362 -9.107268 168.036269 -64.962896 -148.823606 22.833432 -1.701256 -31.384897 -7.232893 -4.812111 2.312448 12.222241 -3.677337 4.257955 152.840185 -67.229092 -178.264624 -13.947333 -23.593889 35.301961 6.878552 -23.839187 1.170778 -74.062067 83.711298 -77.490149 0.602151 -24.817177 9.634128 -0.005192 -0.000902 -0.003036 -1.142323 -19.983993 -3.539395 106.156338 78.331356 114.002376 7.349032 -11.521573 -6.214369 0.005734 -0.003636 0.003352
0.687522 130.434461 54.298551 175.896729 -54.251472 -2.239440 3.711287 28.202092 4.928385 0.452634 5.272595 0.758376 0.807689 8.164746 1.164292 2.714439 22.805459 3.741562 3.059019 24.409286 0.936248 3.100977 0.707543 0.334641 -1.073112 -3.174747 -2.293287 -2.402593 -6.362239 -9.120990 166.791666 -65.268391 -147.534142 22.926036 -1.728998 -31.397563 -7.142474 -4.708754 2.373413 12.585694 -3.633894 4.180813 151.937490 -67.499750 -177.764393 -13.999950 -23.788142 35.671920 6.900218 -23.787069 1.189203 -73.983435 83.699729 -77.411171 0.601266 -24.809936 9.635037 -0.008234 0.000479 -0.004814 -1.127022 -19.929888 -3.548739 106.097525 78.329743 113.950300 7.333035 -11.457890 -6.200044 0.016572 0.020462 0.009691
0.688107 130.434940 54.309038 175.882460 -54.326968 -2.217709 3.751270 28.228685 4.920407 0.463463 5.253624 0.748006 0.789258 8.214511 1.184031 2.772187 22.803055 3.705177 3.087332 24.325830 1.033374 3.113559 0.601935 0.415837 -1.144522 -3.059211 -2.245343 -2.371013 -6.184748 -9.142015 165.223888 -65.539306 -145.964065 23.008022 -1.717693 -31.321534 -7.087254 -4.652277 2.438342 12.831219 -3.578840 4.167253 152.242838 -67.774417 -178.348179 -14.215679 -23.986983 35.962610 6.915228 -23.715110 1.191933 -73.912968 83.695323 -77.339887 0.600440 -24.805961 9.631893 -0.010839 -0.000671 -0.006338 -1.131008 -19.868079 -3.598238 105.977064 78.307499 113.836667 7.345683 -11.382534 -6.209262 0.019181 0.019790 0.011217
0.688327 130.434912 54.318361 175.877587 -54.391555 -2.202431 3.796907 28.250779 4.918501 0.442186 5.275076 0.752548 0.843511 8.207867 1.167305 2.800049 22.819314 3.713261 3.094637 24.249731 1.113725 3.102140 0.509443 0.500976 -1.210958 -2.958662 -2.215130 -2.310784 -5.986594 -9.172270 163.536626 -65.828414 -144.299641 23.077397 -1.675396 -31.159199 -7.060206 -4.623925 2.501350 12.935506 -3.510314 4.205618 153.669949 -68.044778 -179.909439 -14.532042 -24.159262 36.176641 6.927525 -23.653890 1.190779 -73.912728 83.691848 -77.335178 0.602445 -24.807244 9.624608 -0.012052 -0.002025 -0.007047 -1.139370 -19.816619 -3.653027 105.870380 78.280148 113.736852 7.358390 -11.317975 -6.217199 0.015909 0.016676 0.009303
